<svg version="1" xmlns="http://www.w3.org/2000/svg" width="346.667" height="346.667" viewBox="0 0 260.000000 260.000000"><path d="M.1 28.7C.1 55.1.3 57.1 1.6 53c.7-2.5 1.4-5.2 1.4-6 0-.8 1.8-5.2 4.1-9.6 3-6 6-10.1 11.2-15.3 10.3-10.2 17.1-14.3 29-17.2C54.2 3.2 59 3 88 3c28.5 0 33.1.2 34.4 1.6 1.4 1.4 1.6 14.2 1.6 125.8 0 95.3-.3 124.5-1.2 125.4-1.7 1.7-64.1 1.7-74.1 0-4.8-.8-9.6-2.5-14.5-5.1-8-4.3-21.4-16.3-23.8-21.2-.7-1.7-2.5-4.8-3.8-7-1.4-2.2-3.2-7.3-4.1-11.2-.9-4-1.8-7.3-2.1-7.3-.2 0-.4 12.6-.4 28v28h260V0H0l.1 28.7zM214.5 4.9c8.6 2.7 17.2 8 23 14.3C242.8 24.8 248 32 248 33.6c0 .6.5 1.5 1.2 2.2.6.6 2 4.2 3 7.9 1.6 6.3 1.7 13.2 1.8 86.3 0 75.4-.1 79.8-1.9 86-4.6 15.4-15 28-29.3 35.3-9.8 5-15.4 5.7-46.3 5.7-22 0-26.4-.2-28.3-1.6l-2.2-1.5V129.6c0-95.3.3-124.5 1.2-125.4.9-.9 9.2-1.2 31.3-1.2 26.6 0 30.7.2 36 1.9z"/><path d="M195.8 53.8c-.9.4-2.6 1.9-3.8 3.4-2 2.7-2.1 3.6-2 29.8v27l-2.7 2.2c-1.6 1.3-4.9 4.4-7.4 7-8.3 8.5-9.6 21.5-3.4 32.3 3.5 6.1 10.7 11.6 12.1 9.3.4-.7 1-7.5 1.3-15.1.6-13.7.6-13.9 3.4-16.3 4.2-3.6 10.4-3.4 14.3.7 2.9 3 2.9 3.2 3.2 16.5.4 15 1 16.1 6 12.5 8-5.7 12.3-17.1 10.2-27.1-1.4-6.7-4.7-11.8-11.2-17.1l-4.8-4.1V88.6c0-23.5-.2-26.5-1.9-29.6-2.7-5.2-8.1-7.3-13.3-5.2zM50 27.9c-1.9.4-4.8 1.6-6.5 2.6-5.7 3.6-13.7 12-16.2 17.3l-2.5 5.3.1 77.2.2 77.2 2.4 5.2c3 6.7 10.7 14.4 17.6 17.6 5.3 2.5 6 2.6 29.2 2.8 14.6.1 24.2-.2 24.8-.8 1.4-1.4 1.2-202.2-.2-204-.9-1-5.9-1.3-23.3-1.2-12.1.1-23.7.4-25.6.8zm1 28.7c.6 1.4 1 7.2 1 12.8 0 13.2 1.3 16.7 6.9 18.6 5.1 1.6 9.2.1 12-4.4C72.5 81 72.8 78.4 73 68c0-6.9.5-12.9.9-13.3 1.2-1.2 7.4 3.3 10.3 7.3 10 14.1 6.4 31.1-8.6 41.3l-2.6 1.8v26c0 27.9-.5 31-5.1 34.3-4.5 3.1-11.3 1.5-14.2-3.3-1.3-2.3-1.6-6.9-1.8-29.1l-.2-26.4-7.2-7.1c-6.5-6.5-7.3-7.7-8.8-13.8-1.5-5.8-1.5-7.3-.3-12.5.7-3.2 2.1-7.2 3.1-8.8C40.4 61.3 48 54 49.3 54c.4 0 1.2 1.2 1.7 2.6z"/></svg>